<mxfile host="app.diagrams.net" modified="2024-01-21T13:44:26.162Z" agent="Mozilla/5.0 (Macintosh; Intel Mac OS X 10_15_7) AppleWebKit/537.36 (KHTML, like Gecko) Chrome/120.0.0.0 Safari/537.36" etag="cSvRLCqfUCIBGsY3wRYZ" version="22.1.21" type="device">
  <diagram id="wvQ66U3HLiB5DhwhfSA0" name="Page-1">
    <mxGraphModel dx="880" dy="553" grid="1" gridSize="10" guides="1" tooltips="1" connect="1" arrows="1" fold="1" page="1" pageScale="1" pageWidth="827" pageHeight="1169" math="0" shadow="0">
      <root>
        <mxCell id="0" />
        <mxCell id="1" parent="0" />
        <mxCell id="oYaYnM5U1m6DCUof9Qit-1" value="JS&amp;nbsp; ｜ 布局 &amp;amp; 样式 ｜ （客户）端 ｜ 技术栈" style="rounded=0;whiteSpace=wrap;html=1;" vertex="1" parent="1">
          <mxGeometry x="90" y="170" width="350" height="40" as="geometry" />
        </mxCell>
        <mxCell id="oYaYnM5U1m6DCUof9Qit-2" value="必知必会" style="text;html=1;align=center;verticalAlign=middle;resizable=0;points=[];autosize=1;strokeColor=none;fillColor=none;" vertex="1" parent="1">
          <mxGeometry x="455" y="178" width="70" height="30" as="geometry" />
        </mxCell>
        <mxCell id="oYaYnM5U1m6DCUof9Qit-3" value="工具" style="rounded=1;whiteSpace=wrap;html=1;" vertex="1" parent="1">
          <mxGeometry x="90" y="90" width="170" height="60" as="geometry" />
        </mxCell>
        <mxCell id="oYaYnM5U1m6DCUof9Qit-4" value="热门模块&lt;br&gt;工程化" style="rounded=1;whiteSpace=wrap;html=1;" vertex="1" parent="1">
          <mxGeometry x="270" y="90" width="170" height="60" as="geometry" />
        </mxCell>
        <mxCell id="oYaYnM5U1m6DCUof9Qit-5" value="加分项" style="text;html=1;align=center;verticalAlign=middle;resizable=0;points=[];autosize=1;strokeColor=none;fillColor=none;" vertex="1" parent="1">
          <mxGeometry x="460" y="108" width="60" height="30" as="geometry" />
        </mxCell>
        <mxCell id="oYaYnM5U1m6DCUof9Qit-6" value="模式 ｜ 实战 &amp;amp; 算法" style="rounded=0;whiteSpace=wrap;html=1;" vertex="1" parent="1">
          <mxGeometry x="90" y="40" width="350" height="30" as="geometry" />
        </mxCell>
        <mxCell id="oYaYnM5U1m6DCUof9Qit-7" value="" style="rounded=1;whiteSpace=wrap;html=1;" vertex="1" parent="1">
          <mxGeometry x="90" y="470" width="460" height="60" as="geometry" />
        </mxCell>
        <mxCell id="oYaYnM5U1m6DCUof9Qit-8" value="ci/cd" style="rounded=0;whiteSpace=wrap;html=1;" vertex="1" parent="1">
          <mxGeometry x="110" y="480" width="90" height="40" as="geometry" />
        </mxCell>
        <mxCell id="oYaYnM5U1m6DCUof9Qit-9" value="ut / e2e" style="rounded=0;whiteSpace=wrap;html=1;" vertex="1" parent="1">
          <mxGeometry x="220" y="480" width="90" height="40" as="geometry" />
        </mxCell>
        <mxCell id="oYaYnM5U1m6DCUof9Qit-10" value="vue" style="rounded=0;whiteSpace=wrap;html=1;" vertex="1" parent="1">
          <mxGeometry x="330" y="480" width="90" height="40" as="geometry" />
        </mxCell>
        <mxCell id="oYaYnM5U1m6DCUof9Qit-11" value="monitor" style="rounded=0;whiteSpace=wrap;html=1;" vertex="1" parent="1">
          <mxGeometry x="440" y="480" width="90" height="40" as="geometry" />
        </mxCell>
        <mxCell id="oYaYnM5U1m6DCUof9Qit-12" value="" style="rounded=0;whiteSpace=wrap;html=1;" vertex="1" parent="1">
          <mxGeometry x="90" y="400" width="460" height="60" as="geometry" />
        </mxCell>
        <mxCell id="oYaYnM5U1m6DCUof9Qit-13" value="webpack" style="rounded=1;whiteSpace=wrap;html=1;" vertex="1" parent="1">
          <mxGeometry x="110" y="410" width="100" height="40" as="geometry" />
        </mxCell>
        <mxCell id="oYaYnM5U1m6DCUof9Qit-14" value="plugins" style="rounded=1;whiteSpace=wrap;html=1;" vertex="1" parent="1">
          <mxGeometry x="220" y="410" width="170" height="40" as="geometry" />
        </mxCell>
        <mxCell id="oYaYnM5U1m6DCUof9Qit-15" value="output" style="rounded=1;whiteSpace=wrap;html=1;" vertex="1" parent="1">
          <mxGeometry x="405" y="410" width="125" height="40" as="geometry" />
        </mxCell>
        <mxCell id="oYaYnM5U1m6DCUof9Qit-16" value="" style="rounded=0;whiteSpace=wrap;html=1;" vertex="1" parent="1">
          <mxGeometry x="90" y="280" width="460" height="110" as="geometry" />
        </mxCell>
        <mxCell id="oYaYnM5U1m6DCUof9Qit-17" value="" style="rounded=1;whiteSpace=wrap;html=1;" vertex="1" parent="1">
          <mxGeometry x="110" y="290" width="120" height="60" as="geometry" />
        </mxCell>
        <mxCell id="oYaYnM5U1m6DCUof9Qit-18" value="" style="rounded=1;whiteSpace=wrap;html=1;" vertex="1" parent="1">
          <mxGeometry x="120" y="300" width="120" height="60" as="geometry" />
        </mxCell>
        <mxCell id="oYaYnM5U1m6DCUof9Qit-19" value="modules" style="rounded=1;whiteSpace=wrap;html=1;" vertex="1" parent="1">
          <mxGeometry x="130" y="310" width="120" height="60" as="geometry" />
        </mxCell>
        <mxCell id="oYaYnM5U1m6DCUof9Qit-20" value="network" style="rounded=1;whiteSpace=wrap;html=1;" vertex="1" parent="1">
          <mxGeometry x="270" y="310" width="120" height="60" as="geometry" />
        </mxCell>
        <mxCell id="oYaYnM5U1m6DCUof9Qit-21" value="adapter" style="rounded=1;whiteSpace=wrap;html=1;" vertex="1" parent="1">
          <mxGeometry x="410" y="310" width="120" height="60" as="geometry" />
        </mxCell>
        <mxCell id="oYaYnM5U1m6DCUof9Qit-23" value="为我所用" style="text;html=1;align=center;verticalAlign=middle;resizable=0;points=[];autosize=1;strokeColor=none;fillColor=none;" vertex="1" parent="1">
          <mxGeometry x="460" y="40" width="70" height="30" as="geometry" />
        </mxCell>
        <mxCell id="oYaYnM5U1m6DCUof9Qit-24" value="csrf&lt;br&gt;cookie&lt;br&gt;超时拦截" style="text;html=1;align=center;verticalAlign=middle;resizable=0;points=[];autosize=1;strokeColor=none;fillColor=none;" vertex="1" parent="1">
          <mxGeometry x="575" y="213" width="70" height="60" as="geometry" />
        </mxCell>
        <mxCell id="oYaYnM5U1m6DCUof9Qit-25" value="" style="rounded=0;whiteSpace=wrap;html=1;" vertex="1" parent="1">
          <mxGeometry x="230" y="640" width="80" height="190" as="geometry" />
        </mxCell>
        <mxCell id="oYaYnM5U1m6DCUof9Qit-26" value="1" style="rounded=0;whiteSpace=wrap;html=1;" vertex="1" parent="1">
          <mxGeometry x="240" y="780" width="60" height="30" as="geometry" />
        </mxCell>
        <mxCell id="oYaYnM5U1m6DCUof9Qit-27" value="stack" style="text;html=1;align=center;verticalAlign=middle;resizable=0;points=[];autosize=1;strokeColor=none;fillColor=none;" vertex="1" parent="1">
          <mxGeometry x="245" y="610" width="50" height="30" as="geometry" />
        </mxCell>
        <mxCell id="oYaYnM5U1m6DCUof9Qit-28" value="‘zhaowa’" style="rounded=0;whiteSpace=wrap;html=1;" vertex="1" parent="1">
          <mxGeometry x="240" y="740" width="60" height="30" as="geometry" />
        </mxCell>
        <mxCell id="oYaYnM5U1m6DCUof9Qit-29" value="89xxe..." style="rounded=0;whiteSpace=wrap;html=1;" vertex="1" parent="1">
          <mxGeometry x="240" y="700" width="60" height="30" as="geometry" />
        </mxCell>
        <mxCell id="oYaYnM5U1m6DCUof9Qit-30" value="" style="rounded=0;whiteSpace=wrap;html=1;" vertex="1" parent="1">
          <mxGeometry x="380" y="640" width="80" height="190" as="geometry" />
        </mxCell>
        <mxCell id="oYaYnM5U1m6DCUof9Qit-31" value="{...}" style="rounded=0;whiteSpace=wrap;html=1;" vertex="1" parent="1">
          <mxGeometry x="390" y="670" width="60" height="30" as="geometry" />
        </mxCell>
        <mxCell id="oYaYnM5U1m6DCUof9Qit-32" value="heap" style="text;html=1;align=center;verticalAlign=middle;resizable=0;points=[];autosize=1;strokeColor=none;fillColor=none;" vertex="1" parent="1">
          <mxGeometry x="395" y="610" width="50" height="30" as="geometry" />
        </mxCell>
      </root>
    </mxGraphModel>
  </diagram>
</mxfile>
